<svg width="170" height="28" viewBox="0 0 170 28" fill="none" xmlns="http://www.w3.org/2000/svg">
  <title>United Russia</title>
  <rect x="0" y="2" width="24" height="24" rx="6" fill="#1D4ED8"/>
  <path d="M7 17.5c3.8-5.6 8.4-6.7 14-3.2-2.1 2.7-5.2 5.3-9.3 6.1-2.1.4-3.8-.2-4.7-2.9Z" fill="#fff" opacity=".92"/>
  <path d="M9.2 9.1c1.7 1.4 3.5 2.2 5.6 2.5 2.2.3 4.2-.1 6.1-1.2-1.1-1.2-2.7-2.1-4.8-2.6-2.7-.7-4.9-.3-6.9 1.3Z" fill="#fff" opacity=".8"/>
  <g fill="#fff">
    <path d="M34.6 8.2h10.7v2.6h-7.8v3.1h7.1v2.5h-7.1v3.2h7.9v2.7H34.6V8.2Z" opacity=".95"/>
    <path d="M48 8.2h5.5c1.8 0 3.2.5 4.1 1.4.8.8 1.2 1.9 1.2 3.3 0 2.2-1.1 3.6-3 4.3l3.5 5.1h-3.5l-3.1-4.6h-1.7v4.6H48V8.2Zm5.3 6.9c1.6 0 2.6-.8 2.6-2.1 0-1.4-1-2.1-2.6-2.1h-2.4v4.2h2.4Z" opacity=".95"/>
    <path d="M60.9 8.2h3.2l3.5 10.9 3.6-10.9h3.1l-5 14.1h-2.6l-4.8-14.1Z" opacity=".95"/>
  </g>
  <g fill="#fff" opacity=".92">
    <path d="M80.4 8.2h3v14.1h-3V8.2Z"/>
    <path d="M86.7 8.2h5.5c1.8 0 3.2.5 4.1 1.4.8.8 1.2 1.9 1.2 3.3 0 2.2-1.1 3.6-3 4.3l3.5 5.1h-3.5l-3.1-4.6h-1.7v4.6h-3V8.2Zm5.3 6.9c1.6 0 2.6-.8 2.6-2.1 0-1.4-1-2.1-2.6-2.1h-2.4v4.2H92Z"/>
    <path d="M99.3 15.3c0-4 3.1-7.3 7.4-7.3 2.6 0 4.2.9 5.6 2.2l-1.9 2.2c-1.1-1-2.2-1.6-3.8-1.6-2.5 0-4.3 2.1-4.3 4.5 0 2.5 1.8 4.6 4.3 4.6 1.7 0 2.7-.7 3.9-1.7l1.9 1.9c-1.4 1.5-3 2.5-5.9 2.5-4.1 0-7.2-3.2-7.2-7.3Z"/>
  </g>
</svg>

